<svg width="34" height="37" viewBox="0 0 34 37" fill="none" xmlns="http://www.w3.org/2000/svg">
<path fill-rule="evenodd" clip-rule="evenodd" d="M8.14592 9.625C8.14592 4.73498 12.1101 0.770834 17.0001 0.770834C21.8901 0.770834 25.8542 4.73498 25.8542 9.625C25.8542 14.515 21.8901 18.4792 17.0001 18.4792C12.1101 18.4792 8.14592 14.515 8.14592 9.625ZM17.0001 3.89583C13.836 3.89583 11.2709 6.46087 11.2709 9.625C11.2709 12.7891 13.836 15.3542 17.0001 15.3542C20.1642 15.3542 22.7292 12.7891 22.7292 9.625C22.7292 6.46087 20.1642 3.89583 17.0001 3.89583Z" fill="#7000FF"/>
<path fill-rule="evenodd" clip-rule="evenodd" d="M8.66675 24.7292C6.07791 24.7292 3.97925 26.8278 3.97925 29.4167V31.8923C3.97925 31.9299 4.00657 31.9621 4.04377 31.9682C12.6245 33.3691 21.3757 33.3691 29.9564 31.9682C29.9936 31.9621 30.0209 31.9299 30.0209 31.8923V29.4167C30.0209 26.8278 27.9223 24.7292 25.3334 24.7292H24.6233C24.5684 24.7292 24.5138 24.7378 24.4616 24.7549L22.6584 25.3437C18.9817 26.5442 15.0184 26.5442 11.3417 25.3437L9.53856 24.7549C9.48636 24.7378 9.4318 24.7292 9.37689 24.7292H8.66675ZM0.854248 29.4167C0.854248 25.1019 4.35202 21.6042 8.66675 21.6042H9.37689C9.76125 21.6042 10.1432 21.6649 10.5086 21.7843L12.3117 22.373C15.3581 23.3678 18.642 23.3678 21.6884 22.373L23.4916 21.7843C23.857 21.6649 24.2389 21.6042 24.6233 21.6042H25.3334C29.6481 21.6042 33.1459 25.1019 33.1459 29.4167V31.8923C33.1459 33.4615 32.0087 34.7995 30.4599 35.0523C21.5457 36.5077 12.4545 36.5077 3.54023 35.0523C1.99151 34.7995 0.854248 33.4615 0.854248 31.8923V29.4167Z" fill="#7000FF"/>
</svg>
